<?xml version="1.0" encoding="UTF-8" standalone="no"?>
<!-- Created with Inkscape (http://www.inkscape.org/) -->

<svg
   version="1.1"
   id="svg1"
   width="210.85333"
   height="47.119999"
   viewBox="0 0 210.85333 47.119999"
   sodipodi:docname="Hovione Logo_Red_RGB.svg"
   inkscape:export-filename="Hovione Logo_Red_RGB.png"
   inkscape:export-xdpi="96"
   inkscape:export-ydpi="96"
   inkscape:version="1.4.2 (f4327f4, 2025-05-13)"
   xmlns:inkscape="http://www.inkscape.org/namespaces/inkscape"
   xmlns:sodipodi="http://sodipodi.sourceforge.net/DTD/sodipodi-0.dtd"
   xmlns="http://www.w3.org/2000/svg"
   xmlns:svg="http://www.w3.org/2000/svg">
  <defs
     id="defs1">
    <clipPath
       clipPathUnits="userSpaceOnUse"
       id="clipPath52">
      <path
         id="path52"
         style="stroke-width:0.1;stroke-linecap:square;paint-order:markers fill stroke;stop-color:#000000"
         d="m -880.82767,-187.29769 h 1640.84 v 73.28155 h -1640.84 z" />
    </clipPath>
  </defs>
  <sodipodi:namedview
     id="namedview1"
     pagecolor="#ffffff"
     bordercolor="#000000"
     borderopacity="0.25"
     inkscape:showpageshadow="2"
     inkscape:pageopacity="0.0"
     inkscape:pagecheckerboard="true"
     inkscape:deskcolor="#d1d1d1"
     inkscape:export-bgcolor="#ffffff00"
     inkscape:zoom="12.394713"
     inkscape:cx="100.12333"
     inkscape:cy="19.403434"
     inkscape:window-width="3840"
     inkscape:window-height="2089"
     inkscape:window-x="-8"
     inkscape:window-y="-8"
     inkscape:window-maximized="1"
     inkscape:current-layer="g1">
    <inkscape:page
       x="0"
       y="0"
       inkscape:label="1"
       id="page1"
       width="210.85333"
       height="47.119999"
       margin="0"
       bleed="0" />
  </sodipodi:namedview>
  <g
     id="g1"
     inkscape:groupmode="layer"
     inkscape:label="1">
    <g
       id="group-R5"
       style="stroke:none">
      <path
         id="path3"
         d="m 1168.15,190.078 c -2.87,21.606 -15.58,36.227 -35.92,36.227 -20.01,0 -33.05,-14.301 -36.87,-36.227 z m -120.13,-14.301 v 0.641 c 0,48.617 34.63,88.656 84.21,88.656 56.89,0 82.96,-44.179 82.96,-92.476 0,-3.809 -0.33,-8.266 -0.65,-12.719 h -118.53 c 4.76,-21.918 20.02,-33.363 41.64,-33.363 16.2,0 27.96,5.086 41.31,17.484 l 27.64,-24.48 c -15.9,-19.7075 -38.77,-31.7856 -69.6,-31.7856 -51.16,0 -88.98,35.9336 -88.98,88.0426"
         style="fill:#d71a34;fill-opacity:1;fill-rule:nonzero;stroke:none"
         transform="matrix(0.13333333,0,0,-0.13333333,0,47.12)" />
      <path
         id="path4"
         d="M 1423.2,347.059 1275.68,261.883 V 91.5273 L 1423.19,6.35156 1570.73,91.5273 V 261.883 l -147.53,85.176 z m 0,-21.739 128.7,-74.304 V 102.402 l -128.71,-74.3122 -128.7,74.3082 v 148.618 l 128.71,74.304"
         style="fill:#d71a34;fill-opacity:1;fill-rule:nonzero;stroke:none"
         transform="matrix(0.13333333,0,0,-0.13333333,0,47.12)" />
      <path
         id="path5"
         d="m 1383.91,261.898 c -16.68,0 -30.24,-13.535 -30.24,-30.242 v -45.968 h 60.49 v 45.968 c 0,16.707 -13.54,30.242 -30.25,30.242"
         style="fill:#d71a34;fill-opacity:1;fill-rule:nonzero;stroke:none"
         transform="matrix(0.13333333,0,0,-0.13333333,0,47.12)" />
      <path
         id="path6"
         d="m 1353.67,121.617 c 0,-16.715 13.56,-30.2264 30.24,-30.2264 16.71,0 30.25,13.5114 30.25,30.2264 v 45.981 h -60.49 v -45.981"
         style="fill:#d71a34;fill-opacity:1;fill-rule:nonzero;stroke:none"
         transform="matrix(0.13333333,0,0,-0.13333333,0,47.12)" />
      <path
         id="path7"
         d="m 1462.49,91.3906 c 16.69,0 30.23,13.5274 30.23,30.2264 v 45.985 h -60.48 v -45.985 c 0,-16.699 13.55,-30.2264 30.25,-30.2264"
         style="fill:#d71a34;fill-opacity:1;fill-rule:nonzero;stroke:none"
         transform="matrix(0.13333333,0,0,-0.13333333,0,47.12)" />
      <path
         id="path8"
         d="m 1492.72,231.699 c 0,16.692 -13.54,30.199 -30.23,30.199 -16.7,0 -30.2,-13.507 -30.25,-30.199 v -46.011 h 60.48 v 46.011"
         style="fill:#d71a34;fill-opacity:1;fill-rule:nonzero;stroke:none"
         transform="matrix(0.13333333,0,0,-0.13333333,0,47.12)" />
      <path
         id="path9"
         d="m 870.996,261.898 h 48.313 v -24.156 c 11.113,14.305 25.398,27.321 49.879,27.321 36.542,0 57.842,-24.141 57.842,-63.223 V 91.543 h -48.307 v 95.035 c 0,22.879 -10.813,34.637 -29.243,34.637 -18.433,0 -30.171,-11.758 -30.171,-34.637 V 91.543 h -48.313 v 170.355"
         style="fill:#d71a34;fill-opacity:1;fill-rule:nonzero;stroke:none"
         transform="matrix(0.13333333,0,0,-0.13333333,0,47.12)" />
      <path
         id="path10"
         d="m 802.344,175.777 v 0.633 c 0,25.11 -18.125,47.035 -44.805,47.035 -27.656,0 -44.187,-21.289 -44.187,-46.394 v -0.641 c 0,-25.101 18.113,-47.035 44.812,-47.035 27.656,0 44.18,21.301 44.18,46.402 m -136.653,0 v 0.633 c 0,48.942 39.407,88.664 92.473,88.664 52.754,0 91.848,-39.09 91.848,-88.023 v -0.641 c 0,-48.945 -39.407,-88.6756 -92.473,-88.6756 -52.766,0 -91.848,39.1016 -91.848,88.0426"
         style="fill:#d71a34;fill-opacity:1;fill-rule:nonzero;stroke:none"
         transform="matrix(0.13333333,0,0,-0.13333333,0,47.12)" />
      <path
         id="path11"
         d="m 10.6563,314.02 h 48.9414 v -88.04 h 90.2573 v 88.04 h 48.934 V 91.543 h -48.934 v 89.312 H 59.5977 V 91.543 H 10.6563 V 314.02"
         style="fill:#d71a34;fill-opacity:1;fill-rule:nonzero;stroke:none"
         transform="matrix(0.13333333,0,0,-0.13333333,0,47.12)" />
      <path
         id="path12"
         d="m 356.438,175.777 v 0.633 c 0,25.11 -18.118,47.035 -44.805,47.035 -27.649,0 -44.184,-21.289 -44.184,-46.394 v -0.641 c 0,-25.101 18.117,-47.035 44.817,-47.035 27.644,0 44.172,21.301 44.172,46.402 m -136.665,0 v 0.633 c 0,48.942 39.415,88.664 92.493,88.664 52.754,0 91.836,-39.09 91.836,-88.023 v -0.641 c 0,-48.945 -39.407,-88.6756 -92.469,-88.6756 -52.754,0 -91.86,39.1016 -91.86,88.0426"
         style="fill:#d71a34;fill-opacity:1;fill-rule:nonzero;stroke:none"
         transform="matrix(0.13333333,0,0,-0.13333333,0,47.12)" />
      <path
         id="path13"
         d="m 400.332,261.898 h 51.152 l 38.145,-114.089 38.445,114.089 h 50.207 L 511.238,90.2734 H 467.371 L 400.332,261.898"
         style="fill:#d71a34;fill-opacity:1;fill-rule:nonzero;stroke:none"
         transform="matrix(0.13333333,0,0,-0.13333333,0,47.12)" />
      <path
         id="path14"
         d="m 596.406,261.898 h 48.289 V 91.543 h -48.289 v 170.355"
         style="fill:#d71a34;fill-opacity:1;fill-rule:nonzero;stroke:none;opacity:1"
         transform="matrix(0.13333333,0,0,-0.13333333,0,47.12)" />
    </g>
  </g>
</svg>
