<?xml version="1.0" encoding="UTF-8" standalone="no"?>
<!-- Created with Inkscape (http://www.inkscape.org/) -->

<svg
   width="502.35553mm"
   height="56.023579mm"
   viewBox="0 0 502.35553 56.023579"
   version="1.1"
   id="svg1"
   xml:space="preserve"
   inkscape:version="1.3.2 (091e20e, 2023-11-25, custom)"
   sodipodi:docname="pharmetheus_logo_mark_black.svg"
   xmlns:inkscape="http://www.inkscape.org/namespaces/inkscape"
   xmlns:sodipodi="http://sodipodi.sourceforge.net/DTD/sodipodi-0.dtd"
   xmlns="http://www.w3.org/2000/svg"
   xmlns:svg="http://www.w3.org/2000/svg"><sodipodi:namedview
     id="namedview1"
     pagecolor="#ffffff"
     bordercolor="#000000"
     borderopacity="0.25"
     inkscape:showpageshadow="2"
     inkscape:pageopacity="0.0"
     inkscape:pagecheckerboard="0"
     inkscape:deskcolor="#d1d1d1"
     inkscape:document-units="mm"
     inkscape:zoom="0.54208404"
     inkscape:cx="1145.5788"
     inkscape:cy="545.11843"
     inkscape:window-width="2560"
     inkscape:window-height="1494"
     inkscape:window-x="-11"
     inkscape:window-y="-11"
     inkscape:window-maximized="1"
     inkscape:current-layer="layer-MC0"><inkscape:page
       x="0"
       y="0"
       width="502.35553"
       height="56.023579"
       id="page1"
       margin="0"
       bleed="0" /><inkscape:page
       x="1.4148823e-06"
       y="-1.0548106"
       width="503.41391"
       height="57.150002"
       id="page2"
       margin="0.25940001 0.44 1.2533333 0"
       bleed="0" /></sodipodi:namedview><defs
     id="defs1"><clipPath
       clipPathUnits="userSpaceOnUse"
       id="clipPath2"><path
         d="M 0,162 H 1427 V 0 H 0 Z"
         transform="translate(-37.000001,-3.0000001)"
         id="path2" /></clipPath><clipPath
       clipPathUnits="userSpaceOnUse"
       id="clipPath4"><path
         d="M 0,162 H 1427 V 0 H 0 Z"
         transform="translate(-37.000001,-85)"
         id="path4" /></clipPath><clipPath
       clipPathUnits="userSpaceOnUse"
       id="clipPath6"><path
         d="M 0,162 H 1427 V 0 H 0 Z"
         transform="translate(-119.00001,-85)"
         id="path6" /></clipPath><clipPath
       clipPathUnits="userSpaceOnUse"
       id="clipPath8"><path
         d="M 246,0.194 H 1426.67 V 161.059 H 246 Z"
         transform="translate(-269.54301,-84.113402)"
         id="path8" /></clipPath><clipPath
       clipPathUnits="userSpaceOnUse"
       id="clipPath10"><path
         d="M 246,0.194 H 1426.67 V 161.059 H 246 Z"
         transform="translate(-423.01701,-120.9073)"
         id="path10" /></clipPath><clipPath
       clipPathUnits="userSpaceOnUse"
       id="clipPath12"><path
         d="M 246,0.194 H 1426.67 V 161.059 H 246 Z"
         transform="translate(-492.79901,-60.666002)"
         id="path12" /></clipPath><clipPath
       clipPathUnits="userSpaceOnUse"
       id="clipPath14"><path
         d="M 246,0.194 H 1426.67 V 161.059 H 246 Z"
         transform="translate(-638.23702,-96.379802)"
         id="path14" /></clipPath><clipPath
       clipPathUnits="userSpaceOnUse"
       id="clipPath16"><path
         d="M 246,0.194 H 1426.67 V 161.059 H 246 Z"
         transform="translate(-659.09902,-2.9970001)"
         id="path16" /></clipPath><clipPath
       clipPathUnits="userSpaceOnUse"
       id="clipPath18"><path
         d="M 246,0.194 H 1426.67 V 161.059 H 246 Z"
         transform="translate(-913.15802,-71.640002)"
         id="path18" /></clipPath><clipPath
       clipPathUnits="userSpaceOnUse"
       id="clipPath20"><path
         d="M 246,0.194 H 1426.67 V 161.059 H 246 Z"
         transform="translate(-973.67605,-158.9971)"
         id="path20" /></clipPath><clipPath
       clipPathUnits="userSpaceOnUse"
       id="clipPath22"><path
         d="M 246,0.194 H 1426.67 V 161.059 H 246 Z"
         transform="translate(-1064.1201,-120.9082)"
         id="path22" /></clipPath><clipPath
       clipPathUnits="userSpaceOnUse"
       id="clipPath24"><path
         d="M 246,0.194 H 1426.67 V 161.059 H 246 Z"
         transform="translate(-1195.71,-71.640002)"
         id="path24" /></clipPath><clipPath
       clipPathUnits="userSpaceOnUse"
       id="clipPath26"><path
         d="M 246,0.194 H 1426.67 V 161.059 H 246 Z"
         transform="translate(-1264.51,-0.20400001)"
         id="path26" /></clipPath><clipPath
       clipPathUnits="userSpaceOnUse"
       id="clipPath28"><path
         d="M 246,0.194 H 1426.67 V 161.059 H 246 Z"
         transform="translate(-1400.25,-86.488705)"
         id="path28" /></clipPath><clipPath
       clipPathUnits="userSpaceOnUse"
       id="clipPath30"><path
         d="M 246,0.194 H 1426.67 V 161.059 H 246 Z"
         transform="translate(-1409.38,-151.1033)"
         id="path30" /></clipPath></defs><g
     inkscape:label="Layer 1"
     inkscape:groupmode="layer"
     id="layer1"
     transform="translate(-220.00001,-1.0548106)" /><g
     id="layer-MC0"
     inkscape:groupmode="layer"
     inkscape:label="Ebene 1"
     transform="matrix(0.26458333,0,0,0.26458334,4.9379573e-6,-1.0548106)"><path
       id="path1"
       d="M 0,0 C 20.435,0 37,16.565 37,37 37,57.435 20.435,74 0,74 -20.434,74 -37,57.435 -37,37 -37,16.565 -20.434,0 0,0"
       style="fill:#000000;fill-opacity:1;fill-rule:nonzero;stroke:none"
       transform="matrix(1.3333333,0,0,-1.3333333,49.333333,212)"
       clip-path="url(#clipPath2)" /><path
       id="path3"
       d="M 0,0 C 20.435,0 37,16.566 37,37 37,57.434 20.435,74 0,74 -20.434,74 -37,57.434 -37,37 -37,16.566 -20.434,0 0,0"
       style="fill:#000000;fill-opacity:1;fill-rule:nonzero;stroke:none"
       transform="matrix(1.3333333,0,0,-1.3333333,49.333333,102.66667)"
       clip-path="url(#clipPath4)" /><path
       id="path5"
       d="M 0,0 C 20.435,0 37,16.566 37,37 37,57.434 20.435,74 0,74 -20.434,74 -37,57.434 -37,37 -37,16.566 -20.434,0 0,0"
       style="fill:#000000;fill-opacity:1;fill-rule:nonzero;stroke:none"
       transform="matrix(1.3333333,0,0,-1.3333333,158.66667,102.66667)"
       clip-path="url(#clipPath6)" /><path
       id="path7"
       d="m 0,0 h 26.058 c 20.861,0 36.964,2.59 36.964,26.687 0,25.383 -17.346,27.973 -37.59,27.973 H 0 Z m 87.369,26.902 c 0,-39.16 -26.646,-47.553 -62.788,-47.553 H 0 V -81.114 H -23.543 V 74.883 h 48.124 c 34.703,0 62.788,-7.098 62.788,-47.981"
       style="fill:#000000;fill-opacity:1;fill-rule:nonzero;stroke:none"
       transform="matrix(1.3333333,0,0,-1.3333333,359.39067,103.8488)"
       clip-path="url(#clipPath8)" /><path
       id="path9"
       d="m 0,0 c 26.852,0 37.18,-18.071 37.18,-44.963 v -72.945 H 15.683 v 66.918 c 0,16.786 -2.691,32.277 -22.935,32.277 -18.581,0 -27.675,-13.992 -27.675,-36.999 v -62.196 H -56.423 V 38.089 h 21.496 V -18.928 C -28.506,-7.526 -17.346,0 0,0"
       style="fill:#000000;fill-opacity:1;fill-rule:nonzero;stroke:none"
       transform="matrix(1.3333333,0,0,-1.3333333,564.02267,54.790267)"
       clip-path="url(#clipPath10)" /><path
       id="path11"
       d="M 0,0 C 0,-26.035 12.15,-41.75 29.908,-41.75 46.432,-41.75 60.48,-28.625 60.48,0 60.48,28.625 46.46,41.526 29.908,41.526 12.206,41.526 0,26.064 0,0 M 81.191,58.088 V -57.669 H 59.695 v 16.357 C 52.881,-53.151 41.32,-60.463 25.001,-60.463 c -25.824,0 -47.666,22.588 -47.666,60.463 0,37.651 21.889,60.239 47.666,60.239 16.319,0 27.88,-7.312 34.694,-19.141 v 16.99 z"
       style="fill:#000000;fill-opacity:1;fill-rule:nonzero;stroke:none"
       transform="matrix(1.3333333,0,0,-1.3333333,657.06533,135.112)"
       clip-path="url(#clipPath12)" /><path
       id="path13"
       d="M 0,0 C -16.524,0 -25.235,-8.393 -25.235,-32.704 V -93.382 H -46.731 V 22.374 h 21.066 V 1.928 c 5.786,13.124 16.945,20.661 30.778,20.875 1.999,0.035 3.999,-0.036 5.991,-0.214 V -0.652 C 7.416,-0.235 3.71,-0.017 0,0"
       style="fill:#000000;fill-opacity:1;fill-rule:nonzero;stroke:none"
       transform="matrix(1.3333333,0,0,-1.3333333,850.98267,87.4936)"
       clip-path="url(#clipPath14)" /><path
       id="path15"
       d="M 0,0 V 115.757 H 21.496 V 98.981 c 6.402,11.401 16.945,18.927 32.843,18.927 17.141,0 27.263,-7.526 32.226,-20.446 9.29,14.419 22.3,20.446 36.759,20.446 26.029,0 36.151,-18.07 36.151,-44.962 V 0 h -21.496 v 66.919 c 0,16.785 -2.477,32.276 -21.889,32.276 -16.936,0 -25.609,-13.991 -25.609,-36.998 V 0 H 68.984 v 66.919 c 0,16.785 -2.476,32.276 -21.888,32.276 -17.151,0 -25.619,-13.991 -25.619,-36.998 L 21.477,0 Z"
       style="fill:#000000;fill-opacity:1;fill-rule:nonzero;stroke:none"
       transform="matrix(1.3333333,0,0,-1.3333333,878.79867,212.004)"
       clip-path="url(#clipPath16)" /><path
       id="path17"
       d="m 0,0 c -0.626,17.214 -12.15,30.981 -29.908,30.981 -16.73,0 -29.123,-9.035 -32.011,-30.981 z m 20.861,-34.642 c -5.169,-19.152 -21.693,-36.794 -49.984,-36.794 -35.946,0 -55.358,27.32 -55.358,60.891 0,35.928 23.132,59.811 54.732,59.811 34.291,0 54.33,-29.258 52.049,-66.908 h -84.687 c 2.066,-21.304 15.076,-34.643 32.423,-34.643 15.496,0 24.58,6.67 29.123,17.643 z"
       style="fill:#000000;fill-opacity:1;fill-rule:nonzero;stroke:none"
       transform="matrix(1.3333333,0,0,-1.3333333,1217.544,120.48)"
       clip-path="url(#clipPath18)" /><path
       id="path19"
       d="m 0,0 v -40.241 h 21.889 v -16.99 H 0 v -66.061 c 0,-11.83 1.869,-14.848 12.599,-14.848 h 9.084 v -17.857 H 5.991 c -22.516,0 -27.469,5.842 -27.469,29.696 v 69.07 h -16.945 v 16.99 h 16.945 V 0 Z"
       style="fill:#000000;fill-opacity:1;fill-rule:nonzero;stroke:none"
       transform="matrix(1.3333333,0,0,-1.3333333,1298.2347,4.0038667)"
       clip-path="url(#clipPath20)" /><path
       id="path21"
       d="m 0,0 c 26.85,0 37.18,-18.071 37.18,-44.963 v -72.945 h -21.5 v 66.918 c 0,16.786 -2.68,32.277 -22.93,32.277 -18.59,0 -27.67,-13.992 -27.67,-36.999 v -62.196 h -21.5 V 38.089 h 21.5 V -18.928 C -28.5,-7.526 -17.35,0 0,0"
       style="fill:#000000;fill-opacity:1;fill-rule:nonzero;stroke:none"
       transform="matrix(1.3333333,0,0,-1.3333333,1418.8267,54.789067)"
       clip-path="url(#clipPath22)" /><path
       id="path23"
       d="M 0,0 C -0.62,17.214 -12.15,30.981 -29.9,30.981 -46.63,30.981 -59.03,21.946 -61.91,0 Z m 20.87,-34.642 c -5.17,-19.152 -21.7,-36.794 -49.99,-36.794 -35.94,0 -55.36,27.32 -55.36,60.891 0,35.928 23.14,59.811 54.74,59.811 34.29,0 54.32,-29.258 52.04,-66.908 h -84.67 c 2.06,-21.304 15.07,-34.643 32.42,-34.643 15.5,0 24.58,6.67 29.12,17.643 z"
       style="fill:#000000;fill-opacity:1;fill-rule:nonzero;stroke:none"
       transform="matrix(1.3333333,0,0,-1.3333333,1594.28,120.48)"
       clip-path="url(#clipPath24)" /><path
       id="path25"
       d="m 0,0 c -26.24,0 -36.36,17 -36.36,44.963 v 73.588 h 21.5 V 50.99 c 0,-16.776 2.68,-32.052 22.09,-32.052 17.98,0 26.85,13.981 26.85,36.784 v 62.829 h 21.5 V 2.795 H 33.87 V 19.152 C 27.47,7.527 16.73,0 0,0"
       style="fill:#000000;fill-opacity:1;fill-rule:nonzero;stroke:none"
       transform="matrix(1.3333333,0,0,-1.3333333,1686.0133,215.728)"
       clip-path="url(#clipPath26)" /><path
       id="path27"
       d="m 0,0 h 21.28 c -4.13,22.394 -22.11,34.642 -44.42,34.642 -24.36,0 -45.02,-12.482 -45.02,-32.928 0,-21.732 15.69,-29.473 32.42,-32.92 l 16.73,-3.437 c 11.57,-2.375 21.29,-6.679 21.29,-17.437 0,-10.321 -10.75,-16.348 -24.59,-16.348 -15.29,0 -24.37,6.455 -26.64,18.937 h -21.9 c 2.9,-22.812 21.08,-36.793 47.92,-36.793 25.62,0 46.68,13.338 46.68,36.793 0,22.589 -18.38,30.125 -39.45,34.429 l -15.89,3.222 c -10.12,2.152 -15.48,5.842 -15.48,14.42 0,9.464 11.35,13.982 21.89,13.982 C -12.6,16.562 -3.08,11.83 0,0"
       style="fill:#000000;fill-opacity:1;fill-rule:nonzero;stroke:none"
       transform="matrix(1.3333333,0,0,-1.3333333,1867,100.68173)"
       clip-path="url(#clipPath28)" /><path
       id="path29"
       d="m 0,0 v -4.124 h 1.91 c 2.07,0 2.93,0.694 2.93,2.042 C 4.84,-0.416 3.57,0 1.74,0 Z M 0,-6.315 V -11.59 H -2.71 V 2.29 H 1.36 C 5.3,2.29 7.64,1.596 7.64,-2.012 7.65,-2.808 7.42,-3.587 6.99,-4.245 6.56,-4.904 5.95,-5.408 5.23,-5.691 L 8.3,-11.56 H 5.27 l -2.73,5.245 z m 12.14,1.14 c 0,6.454 -4.27,10.757 -10,10.757 -5.74,0 -10.04,-4.303 -10.04,-10.757 -0.06,-1.398 0.16,-2.793 0.64,-4.099 0.48,-1.307 1.21,-2.497 2.15,-3.496 0.94,-0.999 2.07,-1.787 3.32,-2.314 1.24,-0.527 2.58,-0.782 3.93,-0.749 5.73,0 10,4.303 10,10.658 m 2.47,0 c -0.01,-2.568 -0.76,-5.074 -2.14,-7.202 -1.38,-2.127 -3.34,-3.781 -5.63,-4.752 -2.28,-0.971 -4.8,-1.216 -7.22,-0.704 -2.41,0.513 -4.63,1.759 -6.37,3.581 -1.74,1.823 -2.92,4.141 -3.4,6.662 -0.47,2.52 -0.22,5.13 0.73,7.5 0.96,2.37 2.56,4.394 4.62,5.816 2.05,1.423 4.47,2.18 6.94,2.176 C 3.79,7.949 5.45,7.642 6.99,7 8.53,6.358 9.92,5.395 11.09,4.17 c 1.17,-1.225 2.09,-2.686 2.69,-4.294 0.61,-1.607 0.89,-3.326 0.83,-5.051"
       style="fill:#000000;fill-opacity:1;fill-rule:nonzero;stroke:none"
       transform="matrix(1.3333333,0,0,-1.3333333,1879.1733,14.528933)"
       clip-path="url(#clipPath30)" /></g></svg>
