<?xml version="1.0" encoding="UTF-8"?>
<svg xmlns="http://www.w3.org/2000/svg" data-name="Layer 1" viewBox="0 0 1000 302" width="2400" height="724.8"><path fill="#00e47c" d="M65.08 265.2c-20.68-14.9-31.63-25.85-41.97-41.66C8.21 200.42 0 172.44 0 144.76 0 64.78 64.48 0 144.46 0s144.46 64.78 144.46 144.46c0 32.85-11.25 65.69-31.02 90.02-8.21 10.34-15.21 16.42-34.06 30.72v-84.55h14.29v57.78c10.64-12.47 15.82-20.07 20.99-29.2 10.64-18.86 16.42-42.27 16.42-64.78 0-72.99-58.7-132.3-131.08-132.3S13.38 71.47 13.38 145.37c0 33.76 11.86 63.56 37.1 93.06v-57.78h14.6v84.55zm28.59 14.6c-2.74-.61-9.12-3.65-14.29-6.39v-92.76h14.29v99.14zm86.98-203.77l-36.19-27.98-36.19 27.98-7.91-10.34 44.1-34.37 44.1 34.37-7.91 10.34zM122.56 287.4c-5.17-.91-5.47-.91-7.3-1.52-1.52-.3-2.13-.3-6.99-1.52V86.68h14.29V287.4zm28.89 1.22c-2.13.3-2.74.3-5.78.3-4.56 0-6.08 0-8.52-.3V86.68h14.29v201.94zm28.89-4.56c-4.56 1.52-8.52 2.43-14.29 3.65V86.68h14.29v197.38zm29.2-10.64c-4.56 2.13-7.3 3.35-14.6 6.69v-99.45h14.6v92.76zM374.7 14.29c4.56-.3 8.21-.61 9.43-.61 17.33 0 28.89 10.04 28.89 25.55 0 10.64-5.78 18.25-18.25 24.33 15.81 3.35 24.33 13.38 24.33 28.28 0 11.56-6.39 21.29-16.42 25.24-4.56 1.82-10.04 2.43-20.07 2.43h-9.43c-5.17-.3-9.12-.3-12.16-.3h-17.64v-6.08l10.34-1.82v-88.5l-10.34-1.82V14.6h18.55l12.77-.3zm-30.72 260.33v-6.08l9.73-1.82v-88.8l-9.73-1.52v-6.69h34.97v6.39l-9.12 1.82v88.5l8.82 1.82v6.39h-34.67zm32.54-213.8c13.08 0 19.16-6.69 19.16-20.98 0-12.17-6.39-19.46-17.33-19.46-3.04 0-5.17.3-9.43 1.82v38.62h7.6zm-7.6 49.88c3.04 1.82 5.17 2.43 9.43 2.43 14.29 0 23.11-8.82 23.11-23.11s-8.21-21.9-25.85-21.9h-6.69v42.58zm58.09 163.92v-6.08l7.91-1.52v-44.4c0-8.52-2.74-12.47-8.52-12.47-4.56 0-8.52 1.82-14.29 6.69v49.57l7.91 1.82v6.39H388.7v-6.08l8.82-1.82v-55.35l-8.82-1.22v-6.08l18.86-4.87h4.26v9.12c9.12-6.99 13.38-8.82 20.07-8.82 11.56 0 17.94 7.3 17.94 19.77v47.14l7.91 1.82v6.39h-30.72zm63.56-194.03c0 24.03-12.47 40.14-30.72 40.14s-29.2-15.21-29.2-37.41c0-23.72 12.47-40.15 30.72-40.15s29.2 14.9 29.2 37.41zm-43.79 2.13c0 19.46 4.87 30.41 13.38 30.41 9.12 0 13.99-11.56 13.99-34.37 0-18.25-4.87-28.28-13.38-28.28s-13.99 11.86-13.99 32.24zm69.65 126.82c4.26 5.47 5.47 9.12 5.47 14.9 0 13.99-10.95 24.33-25.55 24.33-3.04 0-5.47-.3-8.21-1.22-3.65 2.43-5.78 4.87-5.78 6.69s1.82 2.74 6.39 3.04l18.25.91c14.29.61 20.98 6.08 20.98 17.33 0 16.12-14.29 26.46-36.19 26.46-16.42 0-27.07-6.08-27.07-15.51 0-6.08 3.04-10.04 11.86-15.82-6.08-2.43-8.52-5.17-8.52-9.43 0-5.47 3.95-10.34 13.69-16.42-9.12-5.78-12.47-11.56-12.47-20.98 0-14.29 10.95-25.24 25.24-25.24 3.04 0 4.26.3 9.73 1.52 3.04.91 5.17 1.22 6.69 1.22.3 0 1.52 0 2.74-.3h2.74l12.47-.3v8.82h-12.47zm-31.63 62.35c-3.95 3.65-5.47 6.69-5.47 11.25 0 6.69 6.08 10.64 16.12 10.64 12.47 0 21.9-5.17 21.9-12.47 0-6.39-3.35-7.6-26.76-9.12l-5.78-.3zm.61-48.66c0 12.77 3.04 18.55 10.34 18.55s10.34-5.78 10.34-17.03c0-13.38-3.65-19.77-10.95-19.77-6.69 0-9.73 5.78-9.73 18.25zM517.04 80.9c1.52 20.68 6.69 29.2 17.64 29.2 5.47 0 9.43-2.74 13.99-9.73l6.69 2.74c-7.6 13.69-13.08 17.64-24.94 17.64-18.25 0-28.59-13.08-28.59-36.8 0-25.24 10.64-40.45 28.28-40.45s25.24 12.16 25.55 37.41h-38.62zm23.11-7.3c-.61-16.42-3.65-22.81-10.64-22.81s-10.64 6.99-12.47 22.81h23.11zM552.32 236c1.52 20.98 6.69 29.5 17.64 29.5 5.78 0 9.73-2.74 14.29-9.73l6.69 2.74c-6.99 13.08-13.38 17.64-25.24 17.64-18.25 0-28.59-13.69-28.59-37.1 0-25.24 10.64-40.15 28.28-40.15 12.17 0 20.07 6.39 23.72 18.25 1.22 3.95 1.52 8.82 2.13 18.86h-38.93zm23.11-6.99c-.3-15.81-3.35-22.81-10.34-22.81s-10.95 6.69-12.77 22.81h23.11zm27.37-109.79v-6.08l7.3-1.52V70.56c0-10.95-2.43-14.9-8.82-14.9-4.56 0-7.91 1.52-13.99 6.69v48.96l7.3 1.52v6.39h-31.02v-6.08l9.12-1.82V18.55l-8.52-1.82v-5.17l18.86-3.95h4.26v45.92c8.52-6.69 13.38-8.82 19.77-8.82 11.86 0 17.94 6.99 17.94 20.68v45.92l7.91 1.52v6.39H602.8zm-2.74 155.41v-6.08l8.82-1.82v-93.67l-8.52-.91v-5.17l19.16-4.26h3.95v103.71l8.21 1.82v6.39h-31.63zm80.59 0v-6.08l7.3-1.52v-41.36c0-10.95-2.43-14.9-8.82-14.9-4.26 0-7.91 1.82-13.99 7v48.66l7.3 1.82v6.39h-30.72v-6.08l8.82-1.82v-93.06l-8.52-1.52v-5.17l19.16-4.26h3.95v46.23c8.21-6.69 13.08-8.82 20.07-8.82 11.25 0 17.64 6.99 17.64 19.46v46.84l8.21 1.82v6.39h-30.41zm-14.6-216.54c6.08-10.34 9.12-13.08 14.6-13.08s8.82 3.35 8.82 8.82c0 3.35-1.82 6.08-5.78 9.12l-7.91-4.26c-5.17 2.74-9.43 8.52-9.43 12.77v39.84l10.64 1.52v6.39h-33.76v-6.08l8.82-1.82V55.35l-8.82-1.52v-4.87l18.25-4.87h4.56v13.99zm31.02 61.13v-6.08l8.21-1.82V56.58l-8.21-1.82v-5.17l19.16-4.87h3.65v66.6l8.52 1.52v6.39h-31.32zm24.02-101.88c0 5.47-4.26 9.73-9.73 9.73s-9.73-4.26-9.73-9.73 4.26-9.73 9.73-9.73 9.73 4.26 9.73 9.73zm14.9 218.67c1.52 20.98 6.69 29.5 17.64 29.5 5.78 0 9.73-2.74 14.29-9.73l6.69 2.74c-6.99 13.08-13.38 17.64-25.24 17.64-18.25 0-28.59-13.69-28.59-37.1 0-25.24 10.64-40.15 28.28-40.15 12.17 0 20.07 6.39 23.72 18.25 1.22 3.95 1.52 8.82 2.13 18.86h-38.93zm23.11-6.99c-.31-15.81-3.35-22.81-10.34-22.81s-10.95 6.69-12.77 22.81h23.11zM777.38 119.22v-6.08l7.91-1.52v-44.4c0-8.52-2.74-12.47-8.51-12.47-4.56 0-8.52 1.82-14.29 6.69v49.57l7.91 1.82v6.39h-31.32v-6.08l8.82-1.82V55.97l-8.82-1.22v-6.08l18.86-4.87h4.26v9.12c9.12-6.99 13.38-8.82 20.07-8.82 11.56 0 17.94 7.3 17.94 19.77v47.14l7.91 1.82v6.39H777.4zm9.43 155.41v-6.08l8.21-1.82v-55.05l-8.21-1.82v-4.87l19.16-4.87h3.65v66.3l8.52 1.82v6.39h-31.32zm24.33-102.19c0 5.47-4.56 10.04-10.04 10.04s-9.73-4.26-9.73-9.73 4.56-10.04 10.34-10.04c5.17 0 9.43 4.56 9.43 9.73zm55.35-118.31c4.26 5.47 5.47 9.12 5.47 14.9 0 13.99-10.95 24.33-25.55 24.33-3.04 0-5.47-.3-8.21-1.22-3.65 2.43-5.78 4.87-5.78 6.39 0 2.13 1.82 3.04 6.39 3.35l18.25.91c14.29.61 20.99 6.08 20.99 17.33 0 16.12-14.29 26.46-36.19 26.46-16.42 0-27.07-6.08-27.07-15.51 0-6.08 3.34-10.34 11.86-15.82-6.08-2.43-8.52-5.47-8.52-9.73 0-5.17 3.95-10.04 13.69-16.12-9.12-5.78-12.47-11.56-12.47-20.98 0-14.29 10.95-25.24 25.24-25.24 3.04 0 4.26.3 9.73 1.52 3.04.91 5.17 1.22 6.69 1.22.31 0 1.52 0 2.74-.3h2.74l12.47-.3v8.82h-12.47zm39.23 220.49v-6.08l8.21-1.82v-42.27c0-10.04-2.74-13.99-9.12-13.99-4.87 0-8.21 1.82-14.29 7.3v48.66l7.6 1.82v6.39H867.4v-6.08l8.51-1.82v-42.58c0-9.43-3.04-13.69-9.73-13.69-4.86 0-8.51 1.82-13.69 6.99v48.96l7 1.82v6.39h-31.02v-6.08l8.82-1.82v-55.96l-8.82-1.52v-5.17l19.16-4.87h3.96v10.04c7.6-6.39 13.38-8.82 20.68-8.82s12.77 3.04 17.03 9.73c7.91-7.3 13.08-10.04 20.99-10.04 13.08 0 18.55 6.39 18.55 21.59v44.71l8.52 1.82v6.39h-31.63zm-76.34-146.89c0 6.69 6.08 10.64 16.12 10.64 12.47 0 21.9-5.47 21.9-12.47s-2.43-7.6-32.54-9.43c-3.95 3.65-5.47 6.69-5.47 11.25zm6.08-59.91c0 12.77 3.04 18.55 10.34 18.55s10.34-5.78 10.34-17.03c0-13.38-3.65-19.77-10.95-19.77-6.69 0-9.73 5.78-9.73 18.25zm67.21 13.08c1.52 20.68 6.69 29.2 17.64 29.2 5.47 0 9.43-2.74 13.99-9.73l6.69 2.74c-7.6 13.69-13.08 17.64-24.94 17.64-18.25 0-28.59-13.08-28.59-36.8 0-25.24 10.64-40.45 28.28-40.45s25.24 12.16 25.55 37.41h-38.62zm23.11-7.3c-.61-16.42-3.65-22.81-10.64-22.81s-10.64 6.99-12.47 22.81h23.11zm50.79-15.51c6.08-10.34 9.12-13.08 14.6-13.08s8.82 3.35 8.82 8.82c0 3.35-1.82 6.08-5.78 9.12l-7.91-4.26c-5.17 2.74-9.43 8.52-9.43 12.77v39.84l10.64 1.52v6.39h-33.76v-6.08l8.82-1.82V55.35l-8.82-1.52v-4.87L972 44.09h4.56v13.99z"/></svg>
